HIERARCHY
ROOT Hips
{
	OFFSET 0.000000 0.000000 0.000000
	CHANNELS 6 Xposition Yposition Zposition Xrotation Yrotation Zrotation
	JOINT LeftUpLeg_virtual
	{
		OFFSET 0.000000 0.000000 0.000000
		CHANNELS 3 Xrotation Yrotation Zrotation
		JOINT LeftUpLeg
		{
			OFFSET 11.394100 -6.187798 -0.413800
			CHANNELS 3 Xrotation Yrotation Zrotation
			JOINT LeftLeg
			{
				OFFSET 0.430247 -32.302673 3.732800
				CHANNELS 3 Xrotation Yrotation Zrotation
				JOINT LeftFoot
				{
					OFFSET -0.430247 -48.264931 -6.423300
					CHANNELS 3 Xrotation Yrotation Zrotation
					JOINT LeftToeBase
					{
						OFFSET 4.230900 -16.068199 23.438400
						CHANNELS 3 Xrotation Yrotation Zrotation
						JOINT LeftToe_End
						{
							OFFSET 4.510700 0.695400 19.974600
							CHANNELS 3 Xrotation Yrotation Zrotation
							End Site
							{
								OFFSET 0 0 0
							}
						}
					}
				}
			}
		}
	}
	JOINT RightUpLeg_virtual
	{
		OFFSET 0.000000 0.000000 0.000000
		CHANNELS 3 Xrotation Yrotation Zrotation
		JOINT RightUpLeg
		{
			OFFSET -11.333700 -6.187798 -0.413800
			CHANNELS 3 Xrotation Yrotation Zrotation
			JOINT RightLeg
			{
				OFFSET -0.430392 -32.302628 3.733000
				CHANNELS 3 Xrotation Yrotation Zrotation
				JOINT RightFoot
				{
					OFFSET 0.430392 -48.264973 -6.423500
					CHANNELS 3 Xrotation Yrotation Zrotation
					JOINT RightToeBase
					{
						OFFSET -4.230900 -16.068199 23.438400
						CHANNELS 3 Xrotation Yrotation Zrotation
						JOINT RightToe_End
						{
							OFFSET -4.510700 0.695400 19.974600
							CHANNELS 3 Xrotation Yrotation Zrotation
							End Site
							{
								OFFSET 0 0 0
							}
						}
					}
				}
			}
		}
	}
	JOINT Spine_virtual
	{
		OFFSET 0.000000 0.000000 0.000000
		CHANNELS 3 Xrotation Yrotation Zrotation
		JOINT Spine
		{
			OFFSET -0.002400 12.777504 0.315300
			CHANNELS 3 Xrotation Yrotation Zrotation
			JOINT Spine1
			{
				OFFSET -0.002067 5.816869 0.032633
				CHANNELS 3 Xrotation Yrotation Zrotation
				JOINT Spine1_split
				{
					OFFSET -0.002067 5.816869 0.032633
					CHANNELS 3 Xrotation Yrotation Zrotation
					JOINT Spine2
					{
						OFFSET -0.002067 5.816869 0.032633
						CHANNELS 3 Xrotation Yrotation Zrotation
						JOINT Neck_virtual
						{
							OFFSET 0.000000 0.000000 0.000000
							CHANNELS 3 Xrotation Yrotation Zrotation
							JOINT Neck
							{
								OFFSET -0.003700 21.199493 -0.826900
								CHANNELS 3 Xrotation Yrotation Zrotation
								JOINT Head
								{
									OFFSET 0.000000 20.442200 4.834800
									CHANNELS 3 Xrotation Yrotation Zrotation
									JOINT HeadTop_End
									{
										OFFSET 0.000000 34.668396 4.968400
										CHANNELS 3 Xrotation Yrotation Zrotation
										End Site
										{
											OFFSET 0 0 0
										}
									}
								}
							}
						}
						JOINT LeftShoulder_virtual
						{
							OFFSET 0.000000 0.000000 0.000000
							CHANNELS 3 Xrotation Yrotation Zrotation
							JOINT LeftShoulder
							{
								OFFSET 3.288150 8.794197 -1.372250
								CHANNELS 3 Xrotation Yrotation Zrotation
								JOINT LeftShoulder_split
								{
									OFFSET 3.288150 8.794197 -1.372250
									CHANNELS 3 Xrotation Yrotation Zrotation
									JOINT LeftArm
									{
										OFFSET 11.953299 -2.279007 -0.146200
										CHANNELS 3 Xrotation Yrotation Zrotation
										JOINT LeftForeArm
										{
											OFFSET 18.448900 0.000000 0.000000
											CHANNELS 3 Xrotation Yrotation Zrotation
											JOINT LeftHand
											{
												OFFSET 29.527798 0.000000 0.000000
												CHANNELS 3 Xrotation Yrotation Zrotation
												End Site
												{
													OFFSET 0 0 0
												}
											}
										}
									}
								}
							}
						}
						JOINT RightShoulder_virtual
						{
							OFFSET 0.000000 0.000000 0.000000
							CHANNELS 3 Xrotation Yrotation Zrotation
							JOINT RightShoulder
							{
								OFFSET -3.249400 8.794197 -1.372250
								CHANNELS 3 Xrotation Yrotation Zrotation
								JOINT RightShoulder_split
								{
									OFFSET -3.249400 8.794197 -1.372250
									CHANNELS 3 Xrotation Yrotation Zrotation
									JOINT RightArm
									{
										OFFSET -11.953299 -2.279007 -0.146200
										CHANNELS 3 Xrotation Yrotation Zrotation
										JOINT RightForeArm
										{
											OFFSET -18.448900 0.000000 0.000000
											CHANNELS 3 Xrotation Yrotation Zrotation
											JOINT RightHand
											{
												OFFSET -29.527802 0.000000 0.000000
												CHANNELS 3 Xrotation Yrotation Zrotation
												End Site
												{
													OFFSET 0 0 0
												}
											}
										}
									}
								}
							}
						}
					}
				}
			}
		}
	}
}
MOTION
Frames: 4
Frame Time: 0.03333333
-1.145987 86.370895 -0.070862 0.000000 0.000000 0.000000 -19.839425 1.685192 -0.218018 -18.457673 -0.546652 13.781220 55.027955 2.369832 -0.085571 -21.832280 0.111303 -12.661330 -1.536854 -0.786845 -1.134344 0.000000 0.000000 0.000000 -19.368658 1.878398 -0.143900 -14.919898 -8.272527 -16.669222 51.922958 1.124345 -0.932898 -24.073140 -1.995512 12.026204 1.797579 -0.162229 -0.811402 0.000000 0.000000 0.000000 -20.010325 3.819490 -0.554477 19.286994 -1.396704 3.053461 9.563949 -0.233845 1.404868 1.520415 4.373683 -1.263990 0.000000 0.000000 0.000000 8.379349 -0.662964 1.269710 -15.717606 0.778483 -1.958184 -18.368942 -2.277570 1.539884 0.000000 0.000000 0.000000 10.509089 -1.081256 1.487405 1.662284 -7.652471 -6.303687 -8.470324 -1.083042 -5.983652 -7.027822 -17.283106 -53.530279 64.381220 -58.417802 56.738887 0.000000 0.000000 0.000000 9.004690 -0.559624 1.158431 10.503218 -0.604155 14.053294 -2.071787 1.324434 -1.892930 -24.473568 11.014848 63.125845 83.054110 66.694912 -79.380042 0.000000 0.000000 0.000000 
-1.088164 86.296509 -0.016350 0.000000 0.000000 0.000000 -19.676347 2.337085 -0.118361 -18.624543 -0.481664 13.629690 54.986902 2.400234 0.112653 -21.639501 0.107044 -12.870602 -1.921069 -0.780818 -1.077630 0.000000 0.000000 0.000000 -19.178999 2.523858 -0.116770 -14.883699 -7.963084 -16.751283 51.777636 1.300785 -1.023014 -24.115083 -2.129343 11.984784 1.533544 -0.074009 -0.855627 0.000000 0.000000 0.000000 -19.654887 3.857508 -0.488481 19.141530 -1.396809 2.974523 9.498788 -0.376200 1.256315 1.523602 3.472719 -1.397997 0.000000 0.000000 0.000000 8.385321 -0.655248 1.129299 -14.925949 0.827500 -2.403464 -18.654647 -1.714918 1.313985 0.000000 0.000000 0.000000 10.359684 -1.122229 1.543871 1.550119 -8.055750 -6.395741 -7.411210 -0.267173 -5.310497 -8.863601 -15.796124 -53.400202 61.959679 -58.699902 54.042280 0.000000 0.000000 0.000000 9.184911 -0.637765 1.168780 10.697883 -0.748661 15.033562 -3.509737 1.093014 -1.010279 -24.332448 9.040849 59.935654 80.987302 66.418631 -76.102944 0.000000 0.000000 0.000000 
-1.020375 86.242279 0.089985 0.000000 0.000000 0.000000 -19.063434 3.691139 -0.013006 -19.169197 -1.067382 13.330915 55.207859 2.474653 0.383231 -21.338160 -0.143392 -12.709297 -2.295791 -0.777231 -0.949220 0.000000 0.000000 0.000000 -18.553102 4.240150 0.005066 -14.628088 -8.212029 -16.839027 51.519936 1.312155 -1.033218 -24.071328 -2.539906 11.745917 1.325441 -0.078472 -0.523865 0.000000 0.000000 0.000000 -19.040261 4.765272 -0.272919 18.912652 -1.439629 2.837190 9.182984 -0.618519 1.081627 1.161645 2.473364 -0.563932 0.000000 0.000000 0.000000 8.205857 -0.789122 1.046227 -13.441247 0.681817 -2.850296 -18.604660 -1.153995 0.500145 0.000000 0.000000 0.000000 9.932654 -1.219952 1.617082 1.336773 -9.267561 -6.689515 -6.644183 0.227756 -4.563287 -10.316351 -14.430965 -51.771912 57.989706 -57.297234 48.241353 0.000000 0.000000 0.000000 9.241713 -0.919401 1.133453 10.798039 -1.231916 16.711962 -4.323377 1.817942 -0.033425 -23.518252 6.070234 53.061212 86.037578 68.605979 -79.421631 0.000000 0.000000 0.000000 
-0.933362 86.251984 0.185715 0.000000 0.000000 0.000000 -18.030601 5.623292 0.058018 -20.028370 -2.350526 12.882461 55.335461 2.539004 0.676528 -21.136580 -0.571231 -12.291997 -2.207092 -0.760778 -0.866813 0.000000 0.000000 0.000000 -17.609985 6.720297 0.149400 -14.239197 -9.000211 -16.955395 51.117149 1.174891 -0.945949 -24.076876 -3.208489 11.356372 1.410525 -0.139337 -0.041035 0.000000 0.000000 0.000000 -18.106890 6.417792 -0.031853 18.623983 -1.569742 2.688159 8.632964 -0.994239 0.940763 0.722027 1.495885 0.710022 0.000000 0.000000 0.000000 7.818494 -1.065526 1.062247 -11.716732 0.301330 -2.859735 -18.293162 -0.559110 -0.751770 0.000000 0.000000 0.000000 9.337617 -1.427636 1.713771 1.083683 -10.894074 -7.271327 -5.525058 -0.004536 -3.978842 -10.875494 -13.651496 -48.853922 53.965280 -54.618697 40.944775 0.000000 0.000000 0.000000 8.972859 -1.384348 1.082485 10.767567 -2.073973 18.435601 -4.574193 2.812857 0.642411 -23.592759 2.438178 44.549970 97.700617 72.237310 -89.456074 0.000000 0.000000 0.000000 
